<?xml version="1.0" standalone="no"?>
<!DOCTYPE svg PUBLIC "-//W3C//DTD SVG 20010904//EN"
 "http://www.w3.org/TR/2001/REC-SVG-20010904/DTD/svg10.dtd">
<svg version="1.0" xmlns="http://www.w3.org/2000/svg"
 width="573.000000pt" height="573.000000pt" viewBox="0 0 573.000000 573.000000"
 preserveAspectRatio="xMidYMid meet">
<metadata>
Created by potrace 1.14, written by Peter Selinger 2001-2017
</metadata>
<g transform="translate(0.000000,573.000000) scale(0.100000,-0.100000)"
fill="#000000" stroke="none">
<path d="M3357 5717 c-52 -16 -101 -58 -140 -120 -33 -52 -177 -341 -177 -355
0 -5 -13 -28 -28 -53 -35 -54 -161 -143 -218 -153 -21 -4 -66 -20 -99 -36 -33
-15 -104 -49 -159 -74 -54 -26 -111 -57 -126 -69 -30 -26 -48 -34 -165 -70
-44 -14 -101 -34 -127 -43 -67 -26 -78 -13 -50 63 82 227 123 349 141 423 12
47 26 101 32 120 18 68 28 165 20 200 -4 20 -4 46 0 58 5 13 4 22 -1 22 -8 0
-15 -28 -12 -51 1 -4 -9 -10 -22 -13 -36 -9 -82 -74 -104 -146 -11 -36 -41
-130 -65 -210 -68 -220 -143 -417 -173 -457 -44 -57 -219 -136 -374 -167 -69
-15 -135 -26 -146 -26 -12 0 -93 46 -180 103 -87 56 -200 129 -251 160 -120
76 -138 98 -154 189 -7 40 -12 77 -11 82 4 12 -37 288 -54 368 -17 82 -34 123
-70 163 -14 17 -24 25 -21 19 3 -6 -1 -29 -9 -52 -13 -38 -12 -59 7 -210 12
-92 22 -219 22 -282 l2 -115 -35 -3 c-22 -2 -73 11 -133 33 -124 45 -176 46
-239 6 -28 -18 -57 -48 -73 -76 -26 -43 -27 -52 -22 -128 5 -93 60 -319 107
-447 17 -47 66 -159 109 -250 43 -91 86 -187 96 -213 l17 -49 -38 -56 c-76
-110 -95 -115 -178 -47 -31 25 -60 45 -66 45 -5 0 -10 4 -10 10 0 18 -62 42
-92 36 -18 -3 -27 -2 -23 4 3 6 1 10 -4 10 -14 0 -14 -27 -1 -35 6 -4 8 -10 6
-14 -9 -14 37 -68 112 -131 108 -93 119 -121 78 -218 -34 -82 -50 -181 -51
-307 0 -81 4 -121 17 -151 41 -101 31 -248 -22 -319 -75 -99 -93 -172 -67
-265 9 -30 19 -84 22 -119 7 -62 34 -150 109 -354 20 -54 36 -111 36 -126 0
-42 -30 -62 -105 -71 -120 -15 -124 -55 -5 -52 80 2 92 -7 66 -55 -20 -35 -52
-73 -63 -73 -13 -1 -83 -67 -83 -80 0 -7 -8 -9 -21 -5 l-21 7 21 -21 c19 -19
20 -24 7 -54 -7 -18 -25 -51 -38 -73 -55 -87 -69 -218 -28 -262 35 -37 78 -29
151 28 35 27 70 50 78 50 14 0 14 -7 -4 -170 -3 -25 -7 -61 -9 -80 -2 -19 -7
-44 -12 -55 -13 -32 -11 -128 4 -133 6 -2 10 -8 6 -13 -11 -18 8 -8 36 18 16
16 30 37 32 48 2 11 5 22 8 25 7 6 36 82 98 255 57 157 67 164 137 88 25 -26
47 -55 50 -63 3 -8 24 -23 47 -33 24 -9 88 -51 143 -92 55 -41 138 -96 184
-122 90 -50 145 -92 163 -127 8 -13 14 -118 17 -291 6 -246 8 -273 26 -304 11
-19 33 -43 48 -55 l28 -21 2146 -3 2146 -2 43 20 c31 16 48 32 63 65 19 41 21
62 21 270 0 123 -4 255 -10 292 -5 38 -14 110 -19 161 -7 61 -22 127 -46 195
-78 220 -93 265 -110 350 -15 71 -16 96 -7 135 9 39 8 52 -5 77 -9 17 -25 47
-35 67 -11 20 -24 65 -30 100 -10 57 -9 68 10 112 32 70 29 114 -10 166 -18
24 -39 51 -47 62 -12 16 -10 26 19 83 31 61 32 68 21 106 -9 31 -33 62 -89
115 l-77 74 51 47 c103 96 76 177 -83 257 -58 29 -68 49 -54 104 20 74 -11
129 -105 183 -29 16 -55 37 -58 45 -4 9 -4 44 -1 78 7 78 -3 98 -80 150 -97
67 -120 118 -93 208 18 62 -7 103 -83 136 -41 19 -62 34 -65 49 -3 12 6 91 20
175 57 334 81 602 61 679 -3 14 1 69 9 122 27 167 46 442 46 667 0 254 -8 282
-82 322 l-43 23 -645 2 c-466 1 -655 -2 -683 -10z"/>
<path d="M115 4190 c-3 -5 -1 -10 4 -10 6 0 11 5 11 10 0 6 -2 10 -4 10 -3 0
-8 -4 -11 -10z"/>
<path d="M190 4120 c-9 -6 -10 -10 -3 -10 6 0 15 5 18 10 8 12 4 12 -15 0z"/>
<path d="M246 4045 c4 -8 8 -15 10 -15 2 0 4 7 4 15 0 8 -4 15 -10 15 -5 0 -7
-7 -4 -15z"/>
<path d="M278 3993 c7 -3 16 -2 19 1 4 3 -2 6 -13 5 -11 0 -14 -3 -6 -6z"/>
<path d="M308 3963 c7 -3 16 -2 19 1 4 3 -2 6 -13 5 -11 0 -14 -3 -6 -6z"/>
<path d="M55 1709 c-3 -4 1 -9 9 -12 14 -6 26 0 26 13 0 9 -30 9 -35 -1z"/>
<path d="M5560 1550 c-12 -7 -10 -9 7 -7 12 0 19 5 17 9 -6 10 -6 10 -24 -2z"/>
<path d="M53 1465 c0 -8 4 -12 9 -9 5 3 6 10 3 15 -9 13 -12 11 -12 -6z"/>
<path d="M596 928 c3 -5 10 -6 15 -3 13 9 11 12 -6 12 -8 0 -12 -4 -9 -9z"/>
<path d="M570 829 c0 -5 5 -7 10 -4 6 3 10 8 10 11 0 2 -4 4 -10 4 -5 0 -10
-5 -10 -11z"/>
</g>
</svg>
